<svg width="191" height="38" viewBox="0 0 191 38" fill="none" xmlns="http://www.w3.org/2000/svg">
<path d="M20.5284 30.638H7.17035C5.52915 30.638 4.19958 29.3085 4.19958 27.6673C4.19958 26.0261 5.52915 24.6965 7.17035 24.6965H20.5284C22.1696 24.6965 23.4992 26.0261 23.4992 27.6673C23.4992 29.3085 22.1696 30.638 20.5284 30.638Z" fill="#00916E"/>
<path d="M23.8731 24.8419C22.8552 24.8419 21.858 24.3018 21.2971 23.3669L14.6284 11.8163C13.8182 10.4036 14.296 8.57543 15.7087 7.76522C17.1214 6.95501 18.9495 7.43282 19.7597 8.84549L26.4284 20.3961C27.2386 21.8088 26.7608 23.637 25.3481 24.4472C24.8703 24.7173 24.3717 24.8419 23.8731 24.8419Z" fill="#00916E"/>
<path d="M3.82569 24.8419C3.3271 24.8419 2.80774 24.7173 2.3507 24.4472C0.93803 23.637 0.439438 21.8088 1.27042 20.3962L7.93905 8.84551C8.74926 7.43284 10.5774 6.93425 11.9901 7.76523C13.4028 8.57544 13.9014 10.4036 13.0704 11.8163L6.40174 23.3669C5.8616 24.3018 4.86442 24.8419 3.82569 24.8419Z" fill="#00916E"/>
<path d="M32.348 30V8.50535H45.8241V11.2971H35.5911V17.8463H45.1209V20.6276H35.5911V27.2082H45.9501V30H32.348ZM68.0088 15.4953H64.7343C64.6083 14.7956 64.3739 14.1799 64.0311 13.6481C63.6882 13.1163 63.2684 12.665 62.7716 12.2942C62.2748 11.9234 61.7186 11.6435 61.1028 11.4546C60.4941 11.2657 59.8469 11.1712 59.1612 11.1712C57.9227 11.1712 56.8137 11.4826 55.8341 12.1053C54.8616 12.728 54.0919 13.6411 53.5251 14.8446C52.9654 16.0481 52.6855 17.5174 52.6855 19.2527C52.6855 21.0019 52.9654 22.4783 53.5251 23.6817C54.0919 24.8852 54.8651 25.7948 55.8446 26.4106C56.8242 27.0263 57.9262 27.3342 59.1507 27.3342C59.8294 27.3342 60.4731 27.2432 61.0819 27.0613C61.6976 26.8724 62.2538 26.596 62.7506 26.2321C63.2474 25.8683 63.6672 25.424 64.0101 24.8992C64.3599 24.3675 64.6013 23.7587 64.7343 23.073L68.0088 23.0835C67.8339 24.14 67.4946 25.1126 66.9908 26.0012C66.494 26.8829 65.8538 27.6455 65.0701 28.2892C64.2935 28.926 63.4048 29.4193 62.4043 29.7691C61.4037 30.1189 60.3122 30.2939 59.1297 30.2939C57.2685 30.2939 55.6102 29.8531 54.1549 28.9714C52.6995 28.0828 51.552 26.8129 50.7124 25.1616C49.8797 23.5103 49.4634 21.5407 49.4634 19.2527C49.4634 16.9577 49.8832 14.988 50.7229 13.3437C51.5625 11.6925 52.71 10.426 54.1654 9.5444C55.6207 8.65579 57.2755 8.21148 59.1297 8.21148C60.2702 8.21148 61.3337 8.37591 62.3203 8.70477C63.3139 9.02663 64.206 9.50242 64.9967 10.1321C65.7873 10.7549 66.4415 11.5175 66.9593 12.4201C67.4771 13.3158 67.8269 14.3408 68.0088 15.4953ZM90.5609 19.2527C90.5609 21.5477 90.1411 23.5208 89.3015 25.1721C88.4618 26.8164 87.3108 28.0828 85.8485 28.9714C84.3931 29.8531 82.7383 30.2939 80.8841 30.2939C79.0229 30.2939 77.3611 29.8531 75.8988 28.9714C74.4434 28.0828 73.2959 26.8129 72.4563 25.1616C71.6166 23.5103 71.1968 21.5407 71.1968 19.2527C71.1968 16.9577 71.6166 14.988 72.4563 13.3437C73.2959 11.6925 74.4434 10.426 75.8988 9.5444C77.3611 8.65579 79.0229 8.21148 80.8841 8.21148C82.7383 8.21148 84.3931 8.65579 85.8485 9.5444C87.3108 10.426 88.4618 11.6925 89.3015 13.3437C90.1411 14.988 90.5609 16.9577 90.5609 19.2527ZM87.3493 19.2527C87.3493 17.5034 87.0659 16.0306 86.4992 14.8341C85.9394 13.6306 85.1697 12.721 84.1902 12.1053C83.2176 11.4826 82.1156 11.1712 80.8841 11.1712C79.6457 11.1712 78.5401 11.4826 77.5676 12.1053C76.595 12.721 75.8253 13.6306 75.2586 14.8341C74.6988 16.0306 74.4189 17.5034 74.4189 19.2527C74.4189 21.0019 74.6988 22.4783 75.2586 23.6817C75.8253 24.8782 76.595 25.7878 77.5676 26.4106C78.5401 27.0263 79.6457 27.3342 80.8841 27.3342C82.1156 27.3342 83.2176 27.0263 84.1902 26.4106C85.1697 25.7878 85.9394 24.8782 86.4992 23.6817C87.0659 22.4783 87.3493 21.0019 87.3493 19.2527ZM94.6043 30V8.50535H102.266C103.931 8.50535 105.313 8.79223 106.412 9.36598C107.517 9.93973 108.343 10.7339 108.889 11.7484C109.434 12.756 109.707 13.921 109.707 15.2434C109.707 16.5588 109.431 17.7168 108.878 18.7174C108.332 19.711 107.507 20.4841 106.401 21.0369C105.303 21.5897 103.921 21.866 102.255 21.866H96.4515V19.0743H101.962C103.011 19.0743 103.865 18.9238 104.522 18.623C105.187 18.3221 105.673 17.8848 105.981 17.311C106.289 16.7373 106.443 16.0481 106.443 15.2434C106.443 14.4318 106.286 13.7286 105.971 13.1338C105.663 12.5391 105.177 12.0843 104.512 11.7694C103.854 11.4476 102.99 11.2866 101.92 11.2866H97.8474V30H94.6043ZM105.215 20.3022L110.526 30H106.831L101.626 20.3022H105.215ZM113.653 30V8.50535H127.13V11.2971H116.897V17.8463H126.426V20.6276H116.897V27.2082H127.256V30H113.653ZM133.277 30H129.835L137.57 8.50535H141.317L149.052 30H145.609L139.533 12.4097H139.365L133.277 30ZM133.855 21.5827H145.022V24.3115H133.855V21.5827ZM159.114 30H152.156V8.50535H159.335C161.441 8.50535 163.25 8.93567 164.761 9.79629C166.272 10.6499 167.43 11.8779 168.235 13.4802C169.047 15.0755 169.452 16.9892 169.452 19.2212C169.452 21.4602 169.043 23.3844 168.224 24.9937C167.413 26.603 166.237 27.8414 164.698 28.7091C163.159 29.5697 161.297 30 159.114 30ZM155.399 27.1662H158.936C160.573 27.1662 161.934 26.8584 163.019 26.2426C164.103 25.6199 164.915 24.7208 165.454 23.5453C165.992 22.3628 166.262 20.9215 166.262 19.2212C166.262 17.5349 165.992 16.104 165.454 14.9286C164.922 13.7531 164.128 12.861 163.071 12.2522C162.015 11.6435 160.703 11.3391 159.135 11.3391H155.399V27.1662ZM185.209 14.1519C185.097 13.1583 184.635 12.3887 183.823 11.8429C183.012 11.2901 181.99 11.0138 180.759 11.0138C179.877 11.0138 179.114 11.1537 178.471 11.4336C177.827 11.7065 177.327 12.0843 176.97 12.5671C176.62 13.0429 176.445 13.5851 176.445 14.1939C176.445 14.7047 176.564 15.1455 176.802 15.5163C177.047 15.8871 177.365 16.1985 177.757 16.4504C178.156 16.6953 178.583 16.9017 179.037 17.0696C179.492 17.2306 179.93 17.3635 180.349 17.4685L182.448 18.0142C183.134 18.1821 183.837 18.4095 184.558 18.6964C185.279 18.9833 185.947 19.3611 186.563 19.8299C187.178 20.2987 187.675 20.8795 188.053 21.5722C188.438 22.2649 188.63 23.094 188.63 24.0596C188.63 25.2771 188.315 26.3581 187.686 27.3027C187.063 28.2473 186.157 28.9924 184.967 29.5382C183.785 30.084 182.354 30.3568 180.675 30.3568C179.065 30.3568 177.673 30.1015 176.498 29.5907C175.322 29.0799 174.402 28.3557 173.737 27.4181C173.072 26.4735 172.705 25.354 172.635 24.0596H175.889C175.952 24.8362 176.204 25.4835 176.644 26.0012C177.092 26.512 177.662 26.8934 178.355 27.1452C179.055 27.3901 179.821 27.5126 180.654 27.5126C181.57 27.5126 182.385 27.3691 183.099 27.0823C183.82 26.7884 184.387 26.3826 184.799 25.8648C185.212 25.34 185.419 24.7278 185.419 24.0281C185.419 23.3914 185.237 22.8701 184.873 22.4643C184.516 22.0585 184.03 21.7226 183.414 21.4567C182.805 21.1908 182.116 20.9564 181.346 20.7535L178.806 20.0608C177.085 19.592 175.721 18.9028 174.713 17.9932C173.713 17.0836 173.212 15.8801 173.212 14.3828C173.212 13.1443 173.548 12.0633 174.22 11.1397C174.892 10.2161 175.801 9.49892 176.949 8.98814C178.096 8.47037 179.391 8.21148 180.832 8.21148C182.287 8.21148 183.571 8.46687 184.684 8.97765C185.803 9.48843 186.685 10.1916 187.329 11.0872C187.973 11.9758 188.308 12.9974 188.336 14.1519H185.209Z" fill="black"/>
</svg>
