<svg width="27" height="24" viewBox="0 0 27 24" fill="none" xmlns="http://www.w3.org/2000/svg">
<path d="M20.5284 23.638H7.17035C5.52915 23.638 4.19958 22.3085 4.19958 20.6673C4.19958 19.0261 5.52915 17.6965 7.17035 17.6965H20.5284C22.1696 17.6965 23.4992 19.0261 23.4992 20.6673C23.4992 22.3085 22.1696 23.638 20.5284 23.638Z" fill="#00916E"/>
<path d="M23.8731 17.8419C22.8552 17.8419 21.858 17.3018 21.2971 16.3669L14.6284 4.81626C13.8182 3.40359 14.296 1.57543 15.7087 0.765218C17.1214 -0.0449901 18.9495 0.432825 19.7597 1.84549L26.4284 13.3961C27.2386 14.8088 26.7608 16.637 25.3481 17.4472C24.8703 17.7173 24.3717 17.8419 23.8731 17.8419Z" fill="#00916E"/>
<path d="M3.82569 17.8419C3.3271 17.8419 2.80774 17.7173 2.3507 17.4472C0.93803 16.637 0.439438 14.8088 1.27042 13.3962L7.93905 1.84551C8.74926 0.432841 10.5774 -0.0657489 11.9901 0.765233C13.4028 1.57544 13.9014 3.4036 13.0704 4.81627L6.40174 16.3669C5.8616 17.3018 4.86442 17.8419 3.82569 17.8419Z" fill="#00916E"/>
</svg>
